<svg xmlns="http://www.w3.org/2000/svg" width="25.688" height="18">
    <path fill="#F0F1F1" d="M7.155 5.93H6.134a.4.4 0 00-.287.128.378.378 0 00-.123.268v7.448a.377.377 0 00.123.28.389.389 0 00.287.12h1.021a.382.382 0 00.274-.12.353.353 0 00.131-.28V6.33a.375.375 0 00-.131-.268.353.353 0 00-.274-.132zm9.313.02h-.824a.557.557 0 00-.57.228l-2.353 5.04h-.041l-2.242-5.04a.379.379 0 00-.369-.228H8.958a.356.356 0 00-.328.14.289.289 0 00.021.32l3.648 7.748a.376.376 0 00.369.208h.111a.373.373 0 00.348-.208l3.648-7.748a.288.288 0 00.021-.32.368.368 0 00-.328-.14zm4.935-.188a4.312 4.312 0 00-4.3 4.276 4.212 4.212 0 001.254 3.044 4.11 4.11 0 003.038 1.284 4.069 4.069 0 003.025-1.284 4.181 4.181 0 001.262-3.044 4.313 4.313 0 00-4.279-4.276zm1.783 6.156a2.379 2.379 0 01-1.783.756 2.4 2.4 0 01-1.8-.744 2.623 2.623 0 01-.725-1.888 2.529 2.529 0 01.725-1.84 2.427 2.427 0 011.8-.736 2.368 2.368 0 011.783.736 2.525 2.525 0 01.725 1.84 2.669 2.669 0 01-.725 1.876zM3.322 5.93H.416a.392.392 0 00-.275.128.373.373 0 00-.131.272v1a.386.386 0 00.131.28.4.4 0 00.275.12h1.475v7.17a1.331 1.331 0 01-1.18 1.312H.416a.4.4 0 00-.287.12.371.371 0 00-.123.28v1a.415.415 0 00.111.28.394.394 0 00.295.12h.143a3.13 3.13 0 003.152-2.9.848.848 0 00.017-.188V6.33a.377.377 0 00-.123-.28.365.365 0 00-.279-.12z" fill-rule="evenodd"/>
    <path fill="#18C139" d="M.03-.006c-.254 4.676 3.681 5.34 3.681 5.34C3.515.214.03-.006.03-.006z" fill-rule="evenodd"/>
</svg>